/* XPM */
static char *Tile_46[] = {
/* columns rows colors chars-per-pixel */
"16 16 3 1 ",
"  c #221C1A",
". c #322B28",
"X c None",
/* pixels */
"X   X  XX  X   X",
" ... ..  .. ... ",
" ... ...... ... ",
" ..   ....   .. ",
"X   .      .   X",
" ..          .. ",
" ...        ... ",
"X ..        .. X",
"X ..        .. X",
" ...        ... ",
" ..          .. ",
"X   .      .   X",
" ..   ....   .. ",
" ... ...... ... ",
" ... ..  .. ... ",
"X   X  XX  X   X"
};
