/* XPM */
static char *texture_north[] = {
/* columns rows colors chars-per-pixel */
"64 64 3 1 ",
"  c #70563D",
". c #805E3F",
"X c #9F836B",
/* pixels */
"                                                                ",
"                                                                ",
"  ............................   ............................   ",
"  ............................   ............................   ",
"  ..  XXXXXXXXXXXXXXXXXXXX  ..   ..  XXXXXXXXXXXXXXXXXXXX  ..   ",
"  ..  XXXXXXXXXXXXXXXXXXXX  ..   ..  XXXXXXXXXXXXXXXXXXXX  ..   ",
"  ..XXXXXXXXXXXXXXXXXXXXXXXX..   ..XXXXXXXXXXXXXXXXXXXXXXXX..   ",
"  ..XXXXX              XXXXX..   ..XXXXX              XXXXX..   ",
"  ..XXXXX              XXXXX..   ..XXXXX              XXXXX..   ",
"  ..XXX    ..........    XXX..   ..XXX    ..........    XXX..   ",
"  ..XXX    ..........    XXX..   ..XXX    ..........    XXX..   ",
"  ..XXX  ..  XXXXXX  ..  XXX..   ..XXX  ..  XXXXXX  ..  XXX..   ",
"  ..XXX  ..  XXXXXX  ..  XXX..   ..XXX  ..  XXXXXX  ..  XXX..   ",
"  ..XXX  ..XX      XX..  XXX..   ..XXX  ..XX      XX..  XXX..   ",
"  ..XXX  ..XX      XX..  XXX..   ..XXX  ..XX      XX..  XXX..   ",
"  ..XXX  ..XX  XX  XX..  XXX..   ..XXX  ..XX  XX  XX..  XXX..   ",
"  ..XXX  ..XX  XX  XX..  XXX..   ..XXX  ..XX  XX  XX..  XXX..   ",
"  ..XXX  ..XX      XX..  XXX..   ..XXX  ..XX      XX..  XXX..   ",
"  ..XXX  ..XX      XX..  XXX..   ..XXX  ..XX      XX..  XXX..   ",
"  ..XXX  ..  XXXXXX  ..  XXX..   ..XXX  ..  XXXXXX  ..  XXX..   ",
"  ..XXX  ..  XXXXXX  ..  XXX..   ..XXX  ..  XXXXXX  ..  XXX..   ",
"  ..XXX    ..........    XXX..   ..XXX    ..........    XXX..   ",
"  ..XXX    ..........    XXX..   ..XXX    ..........    XXX..   ",
"  ..XXXXX              XXXXX..   ..XXXXX              XXXXX..   ",
"  ..XXXXX              XXXXX..   ..XXXXX              XXXXX..   ",
"  ..XXXXXXXXXXXXXXXXXXXXXXXX..   ..XXXXXXXXXXXXXXXXXXXXXXXX..   ",
"  ..  XXXXXXXXXXXXXXXXXXXX  ..   ..  XXXXXXXXXXXXXXXXXXXX  ..   ",
"  ..  XXXXXXXXXXXXXXXXXXXX  ..   ..  XXXXXXXXXXXXXXXXXXXX  ..   ",
"  ............................   ............................   ",
"  ............................   ............................   ",
"                                                                ",
"                                                                ",
"                                                                ",
"                                                                ",
"  ............................   ............................   ",
"  ............................   ............................   ",
"  ..  XXXXXXXXXXXXXXXXXXXX  ..   ..  XXXXXXXXXXXXXXXXXXXX  ..   ",
"  ..  XXXXXXXXXXXXXXXXXXXX  ..   ..  XXXXXXXXXXXXXXXXXXXX  ..   ",
"  ..XXXXXXXXXXXXXXXXXXXXXXXX..   ..XXXXXXXXXXXXXXXXXXXXXXXX..   ",
"  ..XXXXX              XXXXX..   ..XXXXX              XXXXX..   ",
"  ..XXXXX              XXXXX..   ..XXXXX              XXXXX..   ",
"  ..XXX    ..........    XXX..   ..XXX    ..........    XXX..   ",
"  ..XXX    ..........    XXX..   ..XXX    ..........    XXX..   ",
"  ..XXX  ..  XXXXXX  ..  XXX..   ..XXX  ..  XXXXXX  ..  XXX..   ",
"  ..XXX  ..  XXXXXX  ..  XXX..   ..XXX  ..  XXXXXX  ..  XXX..   ",
"  ..XXX  ..XX      XX..  XXX..   ..XXX  ..XX      XX..  XXX..   ",
"  ..XXX  ..XX      XX..  XXX..   ..XXX  ..XX      XX..  XXX..   ",
"  ..XXX  ..XX  XX  XX..  XXX..   ..XXX  ..XX  XX  XX..  XXX..   ",
"  ..XXX  ..XX  XX  XX..  XXX..   ..XXX  ..XX  XX  XX..  XXX..   ",
"  ..XXX  ..XX      XX..  XXX..   ..XXX  ..XX      XX..  XXX..   ",
"  ..XXX  ..XX      XX..  XXX..   ..XXX  ..XX      XX..  XXX..   ",
"  ..XXX  ..  XXXXXX  ..  XXX..   ..XXX  ..  XXXXXX  ..  XXX..   ",
"  ..XXX  ..  XXXXXX  ..  XXX..   ..XXX  ..  XXXXXX  ..  XXX..   ",
"  ..XXX    ..........    XXX..   ..XXX    ..........    XXX..   ",
"  ..XXX    ..........    XXX..   ..XXX    ..........    XXX..   ",
"  ..XXXXX              XXXXX..   ..XXXXX              XXXXX..   ",
"  ..XXXXX              XXXXX..   ..XXXXX              XXXXX..   ",
"  ..XXXXXXXXXXXXXXXXXXXXXXXX..   ..XXXXXXXXXXXXXXXXXXXXXXXX..   ",
"  ..  XXXXXXXXXXXXXXXXXXXX  ..   ..  XXXXXXXXXXXXXXXXXXXX  ..   ",
"  ..  XXXXXXXXXXXXXXXXXXXX  ..   ..  XXXXXXXXXXXXXXXXXXXX  ..   ",
"  ............................   ............................   ",
"  ............................   ............................   ",
"                                                                ",
"                                                                "
};
