/* XPM */
static char *texture_south[] = {
/* columns rows colors chars-per-pixel */
"32 32 121 2 ",
"   c #2B241F",
".  c #2C251F",
"X  c #2F2721",
"o  c #724626",
"O  c #734727",
"+  c #754929",
"@  c #764A2A",
"#  c #774B2B",
"$  c #784C2C",
"%  c #794D2D",
"&  c #7A4E2E",
"*  c #7B4F2F",
"=  c #7C5030",
"-  c #7D5131",
";  c #7E5232",
":  c #7F5333",
">  c #7F573A",
",  c #7B5C46",
"<  c #805434",
"1  c #815535",
"2  c #825636",
"3  c #835737",
"4  c #845838",
"5  c #855939",
"6  c #865A3A",
"7  c #875B3B",
"8  c #80583C",
"9  c #81593C",
"0  c #825A3D",
"q  c #845C3F",
"w  c #885C3C",
"e  c #895D3D",
"r  c #855D40",
"t  c #855D41",
"y  c #865E41",
"u  c #876043",
"i  c #876146",
"p  c #886144",
"a  c #896144",
"s  c #8A6245",
"d  c #896246",
"f  c #896449",
"g  c #8A6449",
"h  c #8B6549",
"j  c #8A644A",
"k  c #8A654A",
"l  c #8B664B",
"z  c #8D6549",
"x  c #8D664A",
"c  c #8B664C",
"v  c #8C674C",
"b  c #8F684C",
"n  c #8E684D",
"m  c #8D684E",
"M  c #8D694F",
"N  c #8E694E",
"B  c #8E694F",
"V  c #8F694F",
"C  c #8F6A4F",
"Z  c #8E6950",
"A  c #8E6A50",
"S  c #8F6A50",
"D  c #8F6A51",
"F  c #8F6B51",
"G  c #906B50",
"H  c #906B51",
"J  c #916C52",
"K  c #916D53",
"L  c #926D52",
"P  c #926D53",
"I  c #926E53",
"U  c #936E53",
"Y  c #916D54",
"T  c #926E54",
"R  c #936E54",
"E  c #936F54",
"W  c #936F55",
"Q  c #926F56",
"!  c #936F56",
"~  c #956F54",
"^  c #946F55",
"/  c #946F56",
"(  c #937057",
")  c #947056",
"_  c #957056",
"`  c #957156",
"'  c #957157",
"]  c #947158",
"[  c #957158",
"{  c #947259",
"}  c #957259",
"|  c #967259",
" . c #977259",
".. c #967359",
"X. c #95725A",
"o. c #96735A",
"O. c #96745B",
"+. c #97745B",
"@. c #97745C",
"#. c #97755C",
"$. c #98745A",
"%. c #98755C",
"&. c #98755D",
"*. c #98765D",
"=. c #99765D",
"-. c #9A765D",
";. c #9A775D",
":. c #99765E",
">. c #98765F",
",. c #99775F",
"<. c #9A775E",
"1. c #9A7860",
"2. c #9B7860",
"3. c #9B7961",
"4. c #9A7962",
"5. c #9B7A63",
"6. c #9B7B64",
"7. c #9E7D65",
"8. c #9D7D67",
"9. c #9E7D66",
"0. c #9E7E67",
/* pixels */
"                X     X X X X X X X X   X           X X   X X   ",
"  m ( o.W g s s y > > y i j y y t j F A W W W A A ( ] ] X.#.W f ",
"  o $ = : $ < = o o o o # > : : = O : 9 5 : $ # $ # o = w q : g ",
"  o = < = = < $ o o o o - > < < $ $ 3 5 3 $ $ : = = = 5 w : : #.",
"  # = < o = : o O O # : 3 3 : $ $ 3 7 3 $ $ : : = 3 3 5 < O < 3.",
"  $ < = o $ = $ $ = 3 5 3 = # = 7 7 : = $ < 3 3 < < * = = O = 3.",
"  < 3 < # O = < < 3 5 < : 3 5 5 5 = = = 3 3 5 3 $ o o = < $ < 3.",
"X = < 5 3 = = = = < = = : 7 5 : $ $ 3 7 3 3 : $ o o o < < 3 < / ",
"                  X     .     X X X X X   X   X     .     .   X ",
"f > m m ( o.K A A A W o./ A m g X - t > f c g x x m H H V y 9 , ",
"o # = = O o o O $ < 5 5 = O o y   - = = = = $ o o = 4 < < < $ o ",
"= = 3 < $ o o $ 4 5 5 < o o o K X - : : = = < $ o = 3 = $ < = $ ",
": < < 3 : $ < 3 4 : < $ O $ = / X - - # o $ 5 = $ < < $ $ 5 = = ",
"$ = = = < < < = = < = o $ 3 < W X o o o # = < $ < < $ $ 5 < < = ",
"$ < < $ 5 < $ # < 5 5 : 3 4 $ ( X # - ; < < = o $ $ = 5 5 < < = ",
"3 w < # * < < = 3 5 4 = = $ O g X = > > = < = # = = 5 5 < = $ $ ",
"X X X X   X   X   X X X   X       X X X .     .     .           ",
"  A c W ] o.X.1.X.#.o.X.o.=.o.a j F A c / / K ' $.7.' ' / ' / K ",
"  : 3 3 # # < < : : : : = = O O $ - # - < $ 3 q 7 3 5 3 $ = = 7.",
"X = : $ $ : < : $ > < = : < # O - - o - < < 7 7 < 3 5 < O o o 6.",
"X = # # < < < < = = $ O # < = $ > = o $ : - > = o 3 w = o O O 1.",
"  > 3 : < < < < $ O O # < 3 5 = : : $ O o O O $ = 4 5 < = = = 1.",
"X 3 3 : < 4 < # o o # 3 5 3 < * $ : : = - - - : < = = = < 5 < 0.",
"  : O # = = $ o o O # < = O $ $ # = - = - - - - $ O O O $ : $ X.",
"    X           .                 X       X   X X               ",
"X.Y m j j A H H / o.U U =.H x x   o.3.K A v j A W X.o.o.o.o.=.=.",
"w 5 = = o < = o = < 4 < 3 4 = 3.  # # 3 5 < O o = w w 5 5 5 5 w ",
"3 = = 3 $ = < $ O $ < < 5 5 $ 6.  = o = 5 7 5 < o = 5 w w w w 7 ",
"< < $ < = $ 4 = O O = < 4 4 # 5.  = # # 3 5 w w $ O # 3 5 4 < < ",
"4 $ o < 4 $ $ < < 4 4 = < 5 v 1.  = < 3 5 = $ 5 5 < $ O O $ = 4 ",
"$ o o $ < = < 5 w 5 4 $ # = j 7.X : 4 7 w < $ $ < 4 4 = < 4 4 : ",
"o o o o o $ < = = = $ o O # # j   # = : 3 = $ O O $ < < = < $ o "
};
