/* XPM */
static char *texture_test[] = {
/* columns rows colors chars-per-pixel */
"74 73 41 1 ",
"  c #000000",
". c #080506",
"X c #0D0D06",
"o c #0E0E0C",
"O c #100E0E",
"+ c #11100E",
"@ c #0D0C10",
"# c #100E12",
"$ c #161615",
"% c #181716",
"& c #191915",
"* c #1A1919",
"= c #201E1C",
"- c #22221E",
"; c #232321",
": c #2A2925",
"> c #2E2F2B",
", c #32322D",
"< c #575753",
"1 c #585654",
"2 c #585957",
"3 c #585758",
"4 c #5B5A59",
"5 c #605E5B",
"6 c #6C6B69",
"7 c #B5B5B2",
"8 c #C2C2BE",
"9 c #C4C3C0",
"0 c #DBDBCE",
"q c #DBDFD1",
"w c #E0DFD3",
"e c #F6F4E2",
"r c #FBF6E6",
"t c #F6F9E7",
"y c #FDFAE7",
"u c #F6F5E9",
"i c #FCF7E9",
"p c #F7F9EB",
"a c #FEF9E9",
"s c #FFFFF3",
"d c #FFFFFC",
/* pixels */
" *&$$$$&$$$$$$$$$$$$$$$$$$$$$$$$$$*@:qdpaspaspaspaspaspasiiasiisiisiiiaiis",
".*oO#@#OOooooooOoooooooooooOoooooo$*>qsettptpttttpptttptiiiiriiiiiriiiiiip",
" @  .                             o$>qatttttttttttttttytirrriiirirrriiiiaa",
" #                                o$>qsraaaaaaaaaaaaaaaapaaaiiiiaaaaiiiiaa",
" #                                @$>0sraaaaaaaaaaaaaaaaaaaaiaaaaaaaraaaaa",
" #                                +$>qsearraaaryrayarayararaririraaraaaaaa",
" #                                o%>qseaaaaaaaaaaaaaaaaaaaaaaaaaaaaaaaapa",
" #                                o$>qsraaaaaaaaaaaaaaaaaaaaaaaaaaaaaaaaaa",
" #                                @%>qsrraaaaaaaaaaaaaaaaaaaaaaaaaaaaaaaaa",
" #                                +$>qseaaaaaaaaaaaaayaaaaaaaaaaaaaaaaaaas",
" #                                @%>qsraaaaaaaaaraaaaaaaaaaaaaaaaaaaaaaaa",
" #                                @$>0sraaaaaaaaaaaaaaaaaaaaraaaaaaaaaaaaa",
" #                                +$>qsraaaaaaaaaaaaaaaaaaaaaaaaaaaaaaaaas",
" #                                @$>qsraaaaaaraaaaaaaaaraaaaaaaaaaaaaaaaa",
" #                                o%>qsraayaaaaaaaaaaaaaaaaaaaaaaaaaaaaaya",
" #                                o%>qstaaaaaaaaaaaaaaaaaaaaaaaaaaaaaaaaya",
" #                                @$>qsraraaaaaaaaaaaaaaaaaayaaaaaaaaraara",
" #    .                           @$>qaraaaaaaayaaaaaaaaaaaaaaaaaaaaaaaaaa",
" #                                +$>qseaaaaaaaaaaaaaaaaaaaaaaaaaaaaaaaaas",
" #                                +%>qsraaaaaaaaaaayaaraaaaaaaaaaaaaaaaaaa",
" #                                +%,qsraaaaaaaaaaayaaaaaaaaaaaraaaaaaaara",
" # .                              @$>qsraaaaaaaaaaaaaaaaaaaaaaaaaayaayaaaa",
" #                                @%>qsraaaaaaaaaaaaaaaaaaaaaaaaaaaaaaaaaa",
" #                                @$>qaraaaaaaayaaaaaaaaaaaaaaaaaaaaaaaaaa",
" #                                @%>qstaaaaaaaaaaaaaaaaaaaaaaaaaraaaaaaaa",
" #                                @$>qsraaaaaaaaaaaaaaaaayaaaaayaaaaaaaaaa",
" #  .                             o$>qsraaaaaaaaaaaaraaaaaaaaaaaaaaaaaaara",
" #                                +%>0sraaraaaaaaaaaaaaaaaaaaaaaaaaaaaaaaa",
" #                                @$>qstaaaaaaaaaaaaaaaaaaaaaaaaaaaaaaaaaa",
" #                                +$>qsraaaaaaaaaaaaayaaaaaaaaaaaaaaaaaaaa",
" #                                o$>qaraaaaaaaaaaayaaaaaaaaaaaaaaaaaaaaaa",
" #                                o$>qsraaaaayaaaaaaaaaaaaaaaaraaaaaaaaaas",
" $                                o$>qsraaaaaaaaaaaaaaaaaaaaaaaaaaaaaaaara",
" O                                @$>qsriaaiiaraaaaiiaaiaaariaaiiaaiaaiiaa",
".$.XXXXXXXXXXXXXXXXXXXXXXXXXXXXo@X$*,qperrrrrrrrerrrrrrrrrrrerrrrrrrrrrrrp",
"                                    =wdssdsssssdsdsssdsssssdsdsssdsssssdsd",
"2433<<<<<<<<<<<<<<<<<<<<<<<<<<<<134567889999998899899999999899998999998889",
"ddddddddddddddddddddsdddddddddddddddd5*;-;;;;-:-;;;-;;--;;;-;;;;--;;;;--;;",
"seueeeeeeeeeeeeeeeeereeeeeeeeeetuuuuu4 $XXOXOOOOOOXO+OXO+OOXOXOOX++X+++++O",
"drpiryeyyrrerrrrrrrerrrrrrrerrrairiau4.-++++++++++++++++++++++++++++++++&=",
"suaaaaaayyaaaaaaaaaaaaaaaaaaaaraisiau2 *                                 *",
"seiiiiaryrarayarararyaararraraaaiiiau3.*                                 &",
"sriiaaaayyaaaaaaaaaaaaaaaaaaaaayaaiau1.*                                .&",
"seiiraaryraaaaaaaaaaaaaaaaaaaaaaaaaau3.*     .                           *",
"sraaaraayyaraaaaaaaaaaaaayaaaaaaaaaap2.*    .                            &",
"staaaaaayyaaaayaaaaaaaaaaaaaaaaaaaaau2.*                                .*",
"sraaararyaaaaaaaaaaaaaaaaaaaaaaaaarau2.*                                 *",
"sraaaaaayrayaaaaaaaaaaaraaaaaaaaaarau2.*       .                         *",
"srrayraryaaaaaaaaaaaaaaaaaaaaaaaaaaau3.*     .  .                        *",
"sraaaaaayyaaaaaaaaaaaaaaaaaaaaaraaaau3.*                                .&",
"ayrryryyyyararaaaaaaaayaaraaaaaaaarau3.*   .                             &",
"syyyyyyyyyaaaaaaayaaaaaaaaaaaaaaaapap4.*                                .*",
"seyryyyyyraaaaaaaaaaaaaaaaaaaaaaaarau3.*       ..  .                     *",
"ayyyyyyyyaaraaaaaaaaaaraaaaaaaaaaaaau3.*   .                             *",
"sryyyyyyyyaaaaaaaaaaaaaaaaaaaaaaaaaau3.*                                .*",
"sryyyyayyaayaaaaaaaaaaaaaaaaaaayaaaar3.=     .                           *",
"arayyyyayyaaaaaaaaaaaaaaaaaaaaaaaaaap2.*    .                            *",
"syyyyyyyyyaaaaaaaaaaayaaaaaaaaaaaaaap2.*                                 *",
"sryyyayyyyaraaaaaaaaaaaayaaaaaaaaarau2.*                                .&",
"aryyyyyyyyaaaayaaaaaaaaaaaaaaaaaaayau2.*   .   .                        .&",
"sryyyyyyyaaaaaaaaaaaaaaaaaaaaaaraaaau2.*      .                          &",
"sryyyyayyyaraaaaaaaaaaaaaaaaaaaaaaaau2.*                                .&",
"aryyyyyyyyaaaaaaaaaaaaaaaaaaaaaaaarau3.*   .                            .*",
"syyyayyyyraraaaaraaaaayaaaaaaaaaaapsu3.*         .                      .&",
"sryyyyyyyyaaaaaaaaaaaaaaaaaaaaaaaaaap4.*     .                          .&",
"aryyyyyyyaaraaaaaaayaaaaaaaraaaaaarap2.*                                 *",
"sryyyyyyyyaaaaaaaaaaaaaaaaaaaaaaaaaau2.*       .                         *",
"sryyyyyyyraaaaaaaaaaaaaaaaaaaaaaaaaau2.*         .                       *",
"sryyyyyyyaayaaaaaaaaaaarpaaaaarayarau2.*                                .*",
"atyayyyyyrariaaiaaaaraaaaaaaaaaaayrau2.*                                 &",
"styyayyyraaaapaaaaaaaaaaaaayaaayyytat2.*     .                          .*",
"srtyyataarpapaiptataprypatyrptpyttyte2.* .                               &",
"supppsuppppsupppuuspuspppppsuppptytpp3 :*&$&&&&*&&&&&&&&&&&&&&&&&&&&&&&&&="
};
